<svg xmlns="http://www.w3.org/2000/svg" version="1.1" viewBox="-5.0 -10.0 110.0 135.0">
 <path d="m81.977 47.367c-0.085937-0.44922-0.21484-0.89063-0.39062-1.3164-0.15234-0.37109-0.33984-0.72656-0.5625-1.0625-0.22266-0.33594-0.47656-0.65234-0.76563-0.9375-0.28516-0.28516-0.60156-0.53906-0.9375-0.76172-0.42969-0.28125-0.89844-0.50781-1.3867-0.67578-0.37891-0.12891-0.76562-0.22266-1.1602-0.28125-0.074219-0.011719-0.14844-0.023437-0.22656-0.03125 0.52734-1.9727 0.97656-3.957 1.3516-5.9609 0.97656-5.1953 0.6875-10.109-3.2578-14.18-0.22656-0.23438-0.46094-0.46094-0.70703-0.68359 0.27734 0.082032 0.55469 0.17188 0.82422 0.26563 0.34766 0.12109 0.6875 0.25 1.0352 0.35937 1.207 0.35938 2.2461 0.058594 2.9258-0.99219 0.76562-1.1875-0.39062-1.707-1.0234-2.2852-2.2227-2.0312-4.8867-2.7383-8.0117-2.2031 0-0.87109 0.023437-1.5859-0.003906-2.3008-0.14844-3.4336-1.625-6.2266-4.293-8.3281-0.49219-0.38672-1.5938-0.46094-2.1602-0.17578-1.0039 0.50781-0.71484 1.3945-0.16406 2.2695 0.47266 0.74609 0.71875 1.6328 1.0625 2.4609 0.03125 0.078125 0.066406 0.15234 0.097656 0.23047-0.51172-0.38672-1.0508-0.75-1.5898-1.0859-5.3789-3.3672-11.02-4.168-17.027-1.7461-3.0859 1.2461-6.1992 2.4609-9.375 3.4375-2.4219 0.74609-4.8828 0.45313-7.0586-1.0156-1.1953-0.80859-2.0469-0.30078-2.2812 0.79687-0.1875 0.85938 0.082031 1.9336 0.46875 2.7617 0.34375 0.73828 1.125 1.2695 1.8359 2.0195-2.7891 0.4375-4.6719-0.75391-6.4258-2.4336-0.44922-0.42969-1.4062-0.875-1.7969-0.67188-0.48438 0.25-1 1.2891-0.84766 1.7773 0.50781 2.6523 1.5742 4.7109 3.4492 6.6523-1.0586-0.28125-2.1562-0.46875-3.1719-0.86719-2.0156-0.78906-2.8984-0.25781-2.75 1.9102 0.19531 2.8711 1.5586 5.0508 4.0547 6.3477-0.82812 4.8828-0.59375 9.3945 0.72656 14.164-0.29297 0.13281-0.57812 0.28516-0.84766 0.46484-0.33594 0.22266-0.65234 0.47656-0.9375 0.76172-0.28516 0.28516-0.54297 0.59766-0.76563 0.9375-0.22266 0.33594-0.41016 0.69141-0.5625 1.0625-0.17578 0.42188-0.30469 0.86719-0.39062 1.3164-0.074219 0.39453-0.11719 0.79687-0.13281 1.1992-0.011719 0.41016 0.007813 0.82031 0.050781 1.2266 0.10156 0.94922 0.34375 1.8789 0.71094 2.7578 0.17578 0.42188 0.38281 0.83594 0.62109 1.2266 0.23437 0.38672 0.49609 0.75781 0.78125 1.1055 0.37109 0.44531 0.78516 0.85156 1.2383 1.207 0.35938 0.28125 0.74219 0.52734 1.1445 0.73438 0.41406 0.21484 0.84766 0.38672 1.2969 0.50781 0.23047 0.0625 0.46094 0.11328 0.69922 0.14844 0.24219 0.039062 0.48047 0.058593 0.72266 0.070312 0.45703 0.015625 0.91406-0.019531 1.3633-0.10547 0.23047-0.042968 0.45703-0.10156 0.67578-0.17187 0.015626-0.003907 0.03125-0.007813 0.042969-0.015626 0.011719 0.023438 0.019531 0.050782 0.03125 0.074219 0.33203 0.79297 0.71094 1.5664 1.1445 2.3125 0.34375 0.58984 0.71875 1.1602 1.125 1.7031 0.22266 0.30078 0.45703 0.59766 0.69922 0.88281 0.16406 0.19531 0.32812 0.38281 0.5 0.57031 0.49609 0.55078 1.0195 1.0781 1.5664 1.582 0.57422 0.52734 1.1797 1.0234 1.8086 1.4883 0.71094 0.52344 1.4531 1.0078 2.2188 1.4414 1.207 0.68359 2.4805 1.25 3.7891 1.7031 0.25781 0.089844 0.51562 0.17578 0.77734 0.25781 0.60937 0.19141 0.76953 0.53125 0.53516 1.125-0.046875 0.11719-0.09375 0.23437-0.14062 0.35547-0.10938 0.27344-0.26172 0.41797-0.54297 0.50391-10 3.0312-17.734 11-20.461 21.09-0.19922 0.75391 0.24609 1.5273 1 1.7305 0.75391 0.20312 1.5273-0.23828 1.7344-0.98828 1.918-7.1055 6.6094-13.141 13.023-16.758 5.5078 11.195 21.469 11.195 26.977 0 6.4102 3.6133 11.102 9.6523 13.023 16.758 0.20703 0.75 0.98438 1.1953 1.7344 0.98828 0.75391-0.20312 1.1992-0.97656 1-1.7305-2.7266-10.086-10.461-18.059-20.461-21.09-0.28125-0.085937-0.4375-0.22656-0.54297-0.50391-0.046875-0.11719-0.09375-0.23438-0.14062-0.35547-0.23438-0.59375-0.070313-0.93359 0.53516-1.125 0.26172-0.082032 0.51953-0.16797 0.77734-0.25781 1.3125-0.45312 2.582-1.0195 3.7891-1.7031 1.4453-0.82031 2.8008-1.8047 4.0273-2.9297 0.54688-0.5 1.0703-1.0312 1.5664-1.582 0.16797-0.1875 0.33594-0.37891 0.49609-0.57031 0.24219-0.28516 0.47656-0.58203 0.69922-0.88281 0.40625-0.54688 0.78125-1.1172 1.125-1.7031 0.43359-0.74219 0.8125-1.5156 1.1445-2.3125 0.007813-0.023437 0.019531-0.050781 0.03125-0.074219 0.015625 0.003907 0.027344 0.011719 0.042969 0.015626 0.22266 0.070312 0.44922 0.12891 0.67578 0.17187 0.44922 0.085938 0.90625 0.12109 1.3633 0.10547 0.24219-0.007812 0.48438-0.03125 0.72266-0.070312 0.23438-0.035157 0.46875-0.085938 0.69922-0.14844 0.44922-0.125 0.88281-0.29688 1.2969-0.50781 0.40234-0.20703 0.78516-0.45703 1.1445-0.73438 0.45312-0.35547 0.87109-0.76172 1.2383-1.207 0.28906-0.34766 0.55078-0.71875 0.78125-1.1055 0.23438-0.39453 0.44531-0.80469 0.62109-1.2266 0.36719-0.87891 0.60547-1.8125 0.71094-2.7578 0.042969-0.40625 0.0625-0.81641 0.050781-1.2266 0.011719-0.40234-0.03125-0.80469-0.10547-1.1992zm-54.863 7.2461c-0.23828 0.0625-0.48047 0.097657-0.72656 0.10547-0.20312 0.007812-0.40625-0.007812-0.60938-0.039062-0.21094-0.035157-0.41797-0.085938-0.62109-0.15625-0.33594-0.11719-0.65625-0.28125-0.94922-0.48438-0.37891-0.25781-0.71484-0.56641-1.0117-0.91406-0.26562-0.3125-0.5-0.64844-0.69531-1.0078-0.10156-0.18359-0.19531-0.37109-0.27734-0.56641-0.16406-0.375-0.29297-0.76172-0.38672-1.1562-0.054688-0.21875-0.09375-0.4375-0.12891-0.66016-0.019531-0.14062-0.035156-0.28125-0.046875-0.42578-0.015625-0.17969-0.023437-0.36328-0.023437-0.54297 0.003906-0.33594 0.039062-0.67188 0.10938-1 0.039062-0.17188 0.085937-0.33984 0.14844-0.50391 0.050781-0.14062 0.11328-0.28125 0.18359-0.41406 0.12891-0.25 0.28906-0.48047 0.48047-0.6875 0.1875-0.20703 0.40625-0.38672 0.64453-0.53516 0.15234-0.09375 0.3125-0.17969 0.48047-0.24609 0.14844-0.0625 0.30469-0.11328 0.46094-0.15625 0.27734-0.074218 0.5625-0.11328 0.84766-0.12891 0.23828-0.011719 0.47656-0.003906 0.71875 0.019531 0.089843 0.007813 0.17969 0.019531 0.26953 0.035157v0.011718c0.003906 0.32812 0.011719 0.65625 0.027343 0.98438 0 0.03125 0.003907 0.058594 0.003907 0.089844 0 0.035156 0 0.070313 0.003906 0.10547 0.007813 0.11719 0.015625 0.23047 0.023437 0.34766 0.007813 0.13281 0.015626 0.26953 0.023438 0.40234 0.003906 0.066406 0.011719 0.13672 0.019531 0.20312 0.003907 0.050781 0.007813 0.10547 0.011719 0.15625 0.011719 0.125 0.023438 0.25 0.035156 0.375 0.007813 0.078125 0.011719 0.16016 0.019532 0.23828 0.003906 0.050781 0.011718 0.10156 0.015624 0.15625 0.007813 0.085938 0.015626 0.17188 0.023438 0.26172 0.007812 0.0625 0.015625 0.12891 0.023438 0.19141 0.019531 0.19531 0.039062 0.39062 0.0625 0.58203 0.046874 0.39062 0.097656 0.77734 0.14844 1.1641 0.007813 0.066406 0.015625 0.13281 0.023437 0.19531 0.066407 0.46875 0.14063 0.94141 0.22656 1.4062 0.027344 0.14453 0.058594 0.28516 0.085937 0.42578 0.015626 0.074219 0.023438 0.14844 0.039063 0.22266 0.011719 0.066406 0.035156 0.13281 0.046875 0.19922 0.11719 0.57031 0.24609 1.1406 0.40234 1.707-0.042969 0.015625-0.089844 0.027343-0.13281 0.039062zm33.523 20.133c0.25781 0.10156 0.51562 0.21094 0.77344 0.32031-4.4648 9.1016-17.438 9.1016-21.902 0 0.25781-0.11328 0.51563-0.21875 0.77344-0.32031 4.8672 7.2109 15.484 7.2109 20.355 0zm-16.508-1.1211c0.45312-1.1523 0.91016-2.3008 1.3633-3.4531 3.3594 0.58594 6.5742 0.58594 9.9336 0 0.45312 1.1523 0.91016 2.3008 1.3633 3.4531 0.27734 0.70703 0.16016 1.1523-0.43359 1.6289-3.4492 2.7539-8.3438 2.7539-11.793 0-0.59375-0.47656-0.71484-0.92188-0.43359-1.6289zm27.957-27.793c-0.007813 0.23438-0.023438 0.46875-0.035157 0.70312-0.023437 0.35156-0.050781 0.70703-0.085937 1.0586-0.015625 0.17188-0.03125 0.34375-0.050782 0.51562-0.0625 0.62891-0.13672 1.2539-0.22266 1.8789-0.14062 1.043-0.32422 2.0781-0.57031 3.1016-0.16016 0.67188-0.35156 1.3359-0.57031 1.9883-0.22266 0.65234-0.47656 1.293-0.77344 1.9141-0.29688 0.63281-0.63672 1.2461-1.0156 1.832-0.25391 0.39844-0.52734 0.78125-0.82031 1.1523-0.14844 0.1875-0.30078 0.37109-0.45312 0.55469-0.12891 0.15234-0.26172 0.30469-0.39844 0.45312-0.46875 0.51562-0.96094 1.0078-1.4844 1.4727-1.082 0.96875-2.2773 1.8164-3.5508 2.5156-0.99219 0.54688-2.0312 1-3.1016 1.3711-2.7891 0.96484-5.543 1.4258-8.4922 1.4258-2.9492 0-5.707-0.46094-8.4922-1.4258-1.0703-0.37109-2.1094-0.82812-3.1016-1.3711-1.2734-0.69922-2.4688-1.5469-3.5508-2.5156-0.51953-0.46484-1.0156-0.95703-1.4805-1.4727-0.13672-0.14844-0.26953-0.30078-0.39844-0.45312-0.15625-0.17969-0.30859-0.36719-0.45703-0.55469-0.28906-0.37109-0.56641-0.75391-0.82031-1.1523-0.37891-0.58594-0.71875-1.1992-1.0156-1.832-0.29688-0.62109-0.55078-1.2656-0.77344-1.9141-0.22266-0.65234-0.41406-1.3203-0.57422-1.9883-0.24609-1.0234-0.42578-2.0586-0.57031-3.1016-0.085937-0.625-0.15625-1.2539-0.22266-1.8789-0.015625-0.17188-0.035156-0.34375-0.050781-0.51562-0.03125-0.35156-0.0625-0.70312-0.085937-1.0586-0.015626-0.23438-0.027344-0.46875-0.035157-0.70312-0.011719-0.35156-0.019531-0.70312-0.023437-1.0547-0.003906-0.84766 0.011718-1.6953 0.027344-2.5391 0.015624-0.75781 0.027343-1.5156 0.023437-2.2734-0.007813-1.0352 0.38672-1.6562 1.2969-2.2852 1.0938-0.76172 2.3672-1.8125 2.7188-2.9883 0.88281-2.9297 2.9805-3.1836 5.5508-3.2188-0.12109 0.59766-0.23438 1.0312-0.29297 1.4688-0.17187 1.3125 0.27734 2.1133 1.7148 2.3203 2.9688 0.42578 5.7695-0.21094 8.5039-1.2383 1.6133-0.60547 3.1562-1.3906 4.7344-2.0859 0.59375-0.25781 1.1992-0.48438 1.8008-0.72656-1.1172 0.75781-1.7891 1.6445-2.2148 2.9258-0.23828 0.71875-0.09375 1.1562 0.51953 1.5977 0.28906 0.20703 0.60938 0.35156 0.89062 0.36328 0.83203 0.03125 1.7734-0.26172 2.5156-0.68359 2.4219-1.3789 4.2656-3.3633 5.6562-5.7812 0.36328-0.63672 0.8125-1.2266 1.4766-2.2188 0.24219 1.6289 0.33594 2.7695 0.59375 3.875 0.63281 2.6797 1.8203 4.9375 4.5273 6.0273 0.20313 0.082032 0.33594 0.19922 0.4375 0.39453 0.63672 1.2188 1.4453 1.8789 2.7656 2.2578-0.007813 0.75781 0.007812 1.5156 0.023437 2.2734 0.015625 0.84766 0.03125 1.6953 0.027344 2.5391 0 0.34766-0.007813 0.69922-0.019531 1.0508zm7.1523 3.6484c-0.35547 3.2266-2.7656 5.6172-5.1758 5.1914-0.13281-0.023437-0.26562-0.054687-0.39844-0.097656 0.23047-0.84375 0.41797-1.6953 0.57422-2.5586 0.16406-0.91797 0.29297-1.8438 0.40234-2.7695 0.046875-0.39844 0.085937-0.79297 0.125-1.1914 0.03125-0.32422 0.058594-0.64844 0.085937-0.97266 0.023438-0.3125 0.042969-0.62891 0.058594-0.94141 0.015625-0.33203 0.023438-0.66406 0.027344-0.99609 0.30078-0.046875 0.60938-0.066406 0.90234-0.058593 2.2656 0.074218 3.6875 1.7734 3.3984 4.3945z"/>
 <path d="m29.926 87.559c0.11719 1.6484 0.23047 3.3008 0.34766 4.9492 0.19922 1.8789 2.8945 1.6875 2.8281-0.19922-0.11719-1.6484-0.23047-3.3008-0.34766-4.9492-0.47656-1.4336-2.5547-1.2891-2.8281 0.19922z"/>
 <path d="m68.16 87.359c-0.11719 1.6484-0.23047 3.2969-0.34766 4.9492-0.066406 1.8867 2.6289 2.0781 2.8281 0.19922 0.11719-1.6484 0.23438-3.3008 0.34766-4.9492-0.27344-1.4883-2.3516-1.6328-2.8281-0.19922z"/>
 <path d="m54.566 56.086c-2.5898 3.1562-7.4219 3.1562-10.012 0-1.2422-1.4219-3.3438 0.30078-2.1914 1.7969 3.7227 4.5391 10.672 4.5391 14.395 0 1.1523-1.4961-0.95312-3.2188-2.1914-1.7969z"/>
 <path d="m60.762 44.516c-1.5 0.074219-2.7188 1.7305-2.6992 3.6641 0.019531 1.8828 1.2617 3.3125 2.8398 3.2695 1.5586-0.039063 2.7812-1.5156 2.7617-3.332-0.019531-2.0508-1.332-3.6797-2.9023-3.6016z"/>
 <path d="m40.156 44.516c-1.5742-0.078125-2.8867 1.5508-2.9062 3.6016-0.019531 1.8164 1.207 3.293 2.7617 3.332 1.5781 0.039062 2.8203-1.3906 2.8398-3.2695 0.019532-1.9336-1.1953-3.5898-2.6953-3.6641z"/>
 <path d="m59.621 39.117c-0.6875 0.085937-1.2969 0.23828-1.7031 0.74609-0.28125 0.34766-0.46094 0.86328-0.28906 1.2305 0.097656 0.20703 0.3125 0.36719 0.53516 0.47656 0.22656 0.10938 0.46484 0.16797 0.70313 0.21875 1.5547 0.33984 3.1289 0.43359 4.918 0.26563 0.60547-0.054688 1.2383-0.14063 1.4844-0.42969 0.26172-0.30078 0.10156-0.81641-0.22656-1.2305-0.99219-1.2383-3.5078-1.5195-5.4219-1.2773z"/>
 <path d="m42.051 41.793c0.23828-0.050781 0.47656-0.10938 0.70312-0.21875 0.22266-0.10938 0.43359-0.26953 0.53516-0.47656 0.17188-0.36719-0.007812-0.88281-0.28906-1.2305-0.40625-0.50781-1.0156-0.66016-1.7031-0.74609-1.918-0.24219-4.4336 0.039062-5.418 1.2812-0.32812 0.41406-0.48438 0.92969-0.22656 1.2305 0.25 0.28516 0.87891 0.37109 1.4844 0.42969 1.7852 0.16406 3.3594 0.066406 4.9141-0.26953z"/>
<text x="0.0" y="117.5" font-size="5.0" font-weight="bold" font-family="Arbeit Regular, Helvetica, Arial-Unicode, Arial, Sans-serif" fill="#000000">Created by jisangbong</text><text x="0.0" y="122.5" font-size="5.0" font-weight="bold" font-family="Arbeit Regular, Helvetica, Arial-Unicode, Arial, Sans-serif" fill="#000000">from Noun Project</text></svg>