<svg xmlns="http://www.w3.org/2000/svg" xmlns:xlink="http://www.w3.org/1999/xlink" version="1.1" x="0px" y="0px" viewBox="0 0 512 640" style="enable-background:new 0 0 512 512;" xml:space="preserve"><g><g><g><path d="M255,250c-38.599,0-70-31.402-70-70s31.401-70,70-70c38.598,0,70,31.402,70,70S293.598,250,255,250z M255,130     c-27.57,0-50,22.43-50,50s22.43,50,50,50s50-22.43,50-50S282.57,130,255,130z"/></g><g><path d="M256,456c-54.346,0-105.188-21.435-143.158-60.355C76.187,358.072,56,308.479,56,256c0-110.28,89.72-200,200-200     s200,89.72,200,200c0,53.611-20.935,103.963-58.947,141.781C359.317,435.324,309.224,456,256,456z M256,76     c-99.253,0-180,80.748-180,180c0,47.229,18.168,91.863,51.157,125.678C161.333,416.708,207.09,436,256,436     c47.9,0,92.984-18.608,126.947-52.396C417.159,349.566,436,304.249,436,256C436,156.748,355.252,76,256,76z"/></g><g><path d="M256,456c-54.346,0-105.188-21.435-143.158-60.355c-1.822-1.868-2.842-4.374-2.842-6.983V331.5     c0-33.911,27.589-61.5,61.5-61.5h42.591c3.921,0,7.48,2.292,9.104,5.862L255,345.834l31.806-69.972     c1.623-3.57,5.182-5.862,9.104-5.862H338.5c33.911,0,61.5,27.589,61.5,61.5v59.192c0,2.661-1.061,5.212-2.947,7.089     C359.317,435.324,309.224,456,256,456z M130,384.528C163.849,417.753,208.433,436,256,436c46.526,0,90.398-17.559,124-49.529     V331.5c0-22.883-18.617-41.5-41.5-41.5h-36.151l-38.245,84.138C262.48,377.708,258.921,380,255,380     c-3.922,0-7.481-2.292-9.104-5.862L207.651,290H171.5c-22.884,0-41.5,18.617-41.5,41.5V384.528z"/></g></g></g><text x="0" y="527" fill="#000000" font-size="5px" font-weight="bold" font-family="'Helvetica Neue', Helvetica, Arial-Unicode, Arial, Sans-serif">Created by Flatart</text><text x="0" y="532" fill="#000000" font-size="5px" font-weight="bold" font-family="'Helvetica Neue', Helvetica, Arial-Unicode, Arial, Sans-serif">from the Noun Project</text></svg>