<svg xmlns="http://www.w3.org/2000/svg" version="1.1" viewBox="-5.0 -10.0 110.0 135.0">
 <path d="m87.316 49.391c-0.3125-2.0781-1.4688-3.1172-3.5938-3.2656-1.2539-0.097656-2.5078-0.19922-3.7422-0.21484-0.64453-0.015625-0.77344-0.13281-0.59375-0.80859 1.7305-7.0078 3.4453-14.051 5.1445-21.078 0.28125-1.1211-0.11719-1.9297-1.1055-2.3594-1.0703-0.47656-2.0469-0.21484-2.6719 0.71094-0.39453 0.57812-0.625 1.2383-0.80859 1.9141-1.7148 6.9102-3.4297 13.805-5.1289 20.715-0.097656 0.41406-0.11719 0.80859-0.64453 0.80859h-7.7188c0.60938-1.1875 0.32812-2.2578 0.24609-3.2969-0.26562-3.1836-2.5898-5.293-5.8047-5.3125-3.0508-0.03125-6.1016-0.050781-9.1523 0-0.94141 0-1.6328-0.29688-2.2578-0.97266-2.9023-3.168-5.8203-6.3164-8.7266-9.4688 4.8008-2.1758 8.082-7.5547 6.9922-12.32-1.1055-4.8008-5.4258-8.7266-9.9961-8.9727-5.1797-0.28125-9.4688 2.6211-11.23 7.5859-1.6836 4.7188 0.082031 9.582 4.6836 12.797-0.46094 0.28125-0.90625 0.51172-1.3203 0.79297-2.0273 1.4023-3.9766 2.9844-4.3867 5.5234-0.67578 4.1055-1.0547 8.2617-1.5664 12.438-0.26562-0.11719-0.23047-0.34766-0.26562-0.51172-0.34766-2.8203-0.69141-5.6406-1.0391-8.4609-0.21484-1.7969-0.60938-3.4648-2.5898-4.1719-0.74219-0.26563-1.4844-0.11719-2.2109-0.16406-3.8242-0.24609-5.7852 2.1133-5.207 5.9219 0.49609 3.3477 0.72656 6.7461 1.0703 10.125 0.34766 3.332 0.66016 6.6641 1.0234 9.9961 0.34766 3.2969 0.74219 6.5977 1.1055 9.8789 0.32813 3.0664 1.1367 5.7578 4.5859 6.6484 0.59375 0.16406 0.36328 0.64453 0.29688 0.97266-0.52734 2.5898-1.1562 5.1445-1.7305 7.7188-0.71094 3.168-1.75 6.2852-1.75 9.5977 0 1.3047 0.60938 2.0117 1.7812 2.1289 1.1875 0.11719 1.9297-0.46094 2.2266-1.7305 0.24609-1.1055 0.47656-2.1953 0.72656-3.2969 0.11719-0.49609 0.29688-0.75781 0.94141-0.75781 6.2188 0.03125 12.453 0.03125 18.672 0.015625 0.49609 0 0.71094 0.066406 0.83984 0.66016 0.26562 1.2383 0.36328 2.5234 0.85938 3.7266 0.42969 1.0391 1.2188 1.5156 2.3086 1.3672 1.0703-0.14844 1.418-0.98828 1.4844-1.9453 0.03125-0.49609 0.015625-0.98828-0.097656-1.5-1.1367-5.4258-2.2578-10.852-3.3633-16.277-0.050781-0.26562-0.23047-0.57812 0.28125-0.72656 1.5508-0.39453 2.7539-1.3359 3.7773-2.6562 1.0898 5.4102 2.0938 10.703 3.1836 15.965 0.36328 1.7305 0.44531 3.5938 1.7148 4.9961 2.1602 2.4062 4.8672 2.8711 7.8828 2.0469 3.3477-0.90625 5.5742-4.3867 4.8008-7.6523-1.1875-5.0156-1.8477-10.145-2.9531-15.191-1.0547-4.7188-1.2695-9.6641-3.4141-14.152 5.4609 0 10.902 0.015625 16.344-0.03125 0.83984 0 1.0898 0.16406 1.0703 1.0547-0.03125 6.7461 0 13.477 0 20.203 0 4.5859-0.015624 9.1719-0.03125 13.738 0 1.3203 0.5625 2.0781 1.6172 2.1758 1.2539 0.11719 2.0781-0.47656 2.4062-1.6992 0.14844-0.57813 0.13281-1.1562 0.13281-1.75 0-10.77 0.015626-21.523-0.03125-32.293 0-1.1875 0.26563-1.5352 1.4336-1.4531 0.92188 0.082031 1.8789-0.097656 2.8047-0.19922 1.6172-0.16406 2.7031-1.0703 2.7695-2.5078 0.074219-1.6562 0.19141-3.3555-0.074219-5.0234zm-57.148-32.902c0-3.3633 2.7539-6.9766 6.7773-6.7773 3.6797 0 6.6289 2.9688 6.6133 6.6641-0.015625 3.8594-2.9375 6.7305-6.8281 6.7305-3.6445-0.019531-6.5781-2.957-6.5625-6.6172zm-10.605 44.055c-0.54297-4.7812-1.2188-9.5664-1.7969-14.348-0.36328-3.0664-0.66016-6.1367-1.0078-9.1875-0.066406-0.59375 0.11719-1.0898 0.5625-1.4688 0.59375-0.51172 1.2188-0.29687 1.3203 0.49609 0.47656 3.8594 0.83984 7.7344 1.4336 11.578 0.69141 4.4844 0.41406 9.1211 2.0781 13.441 0.29688 0.77344 0.59375 1.5664 0.89062 2.3438-0.050781 0.050781-0.066407 0.082031-0.082031 0.082031-3.1172 0.22656-3.0352 0.22656-3.3984-2.9375zm21.145 24.027h-8.5586c-2.7383 0-5.4766-0.015624-8.2148 0.015626-0.77344 0.015624-0.875-0.13281-0.67578-0.90625 0.71094-2.9688 1.3516-5.9531 1.9297-8.957 0.14844-0.71094 0.41406-0.85938 1.0703-0.85938 4.0586 0.03125 8.1328 0.015625 12.188 0.015625 0.44531 0 0.75781-0.03125 0.89063 0.60938 0.625 3.1836 1.3047 6.3672 2.0117 9.5312 0.16797 0.76562-0.29297 0.55078-0.64062 0.55078zm2.7031-14.973c-0.47656 0.34766-1.0391 0.32812-1.582 0.32812h-19.379c-0.46094 0-0.94141 0.03125-1.3359-0.3125-0.47656-0.42969-0.90625-0.98828-0.75781-1.6016 0.16406-0.66016 0.875-0.49609 1.418-0.49609 3.5117-0.015625 7.043 0 10.57 0v0.03125c3.5117 0 7.043-0.015625 10.57 0.015625 0.36328 0.015625 1.0078-0.39453 1.1367 0.36328 0.10156 0.66406-0.078125 1.2578-0.64062 1.6719zm16.512 11.047c0.41406 2.1445 0.82422 4.2734 1.2188 6.4141 0.3125 1.7656-0.39453 3.168-1.75 3.4648-2.0469 0.44531-3.6797-0.36328-4.0898-2.2578-0.92188-4.2383-1.7656-8.4922-2.5898-12.766-0.66016-3.4961-1.2383-7.0273-1.9141-10.523-0.21484-1.0703-0.95703-1.582-2.1289-1.5664-5.9062 0.050782-11.824 0.03125-17.73 0.050782-2.4727 0.015624-4.4219-1.8477-4.5703-4.3711-0.11719-2.0469 0.36328-4.0391 0.59375-6.0352 0.42969-3.5625 0.82422-7.125 1.3359-10.672 0.39453-2.8516 0.46094-5.7383 1.1211-8.5586 0.98828-4.3359 7.1406-5.625 9.7812-2.5547 2.6875 3.1328 5.6719 6.0352 8.4922 9.0703 0.57812 0.625 1.1875 0.89062 2.0469 0.875 3.4805-0.03125 6.9766-0.015625 10.457-0.015625 1.9805 0.015625 2.8867 1.1875 2.3594 3.0859-0.26563 0.94141-0.95703 1.3867-1.9297 1.3867-2.1094-0.015625-4.2383-0.015625-6.3516-0.015625v0.066406c-1.7148 0-3.4453-0.11719-5.1641 0.015625-2.2109 0.17969-3.5938-0.95703-4.75-2.6055-1.3867-2.0117-3.1836-3.6445-5.1133-5.0977-1.6992-1.2695-2.9688-0.79297-3.5781 1.0898-0.29688 0.85938-0.13281 1.5156 0.71094 1.9453 0.37891 0.19922 0.72656 0.44531 1.0898 0.67578 1.5156 0.95703 1.6992 1.6484 1.4688 3.4141-0.39453 3.2812-0.90625 6.5625-1.0391 9.8789-0.050782 1.5156 0.83984 2.3594 2.375 2.375 3.793 0.050782 7.6016 0.03125 11.379 0.19922 2.4062 0.11719 4.4375 2.1758 4.8008 4.5195 0.94531 6.2109 2.2969 12.344 3.4688 18.512zm-13.492-27.211c-1.1719 0-2.3594-0.050782-3.5117 0.015625-0.72656 0.050781-0.85938-0.23047-0.77344-0.83984 0.23047-1.75 0.44531-3.4805 0.67578-5.4258 1.4531 1.5 2.918 2.457 4.75 2.7227 0.85938 0.13281 0.83984 0.71094 0.875 1.3516 0.097657 2.1914 0.11328 2.1914-2.0156 2.1758zm35.395-0.36328c-9.418 0.015626-18.852 0.015626-28.285 0.015626-0.94141 0-1.3359-0.39453-1.3047-1.3516 0.03125-1.1875 0.34766-1.6172 1.4531-1.6172 4.7344-0.015626 9.4688 0 14.199 0 4.668 0 9.3203 0.015624 13.969 0 0.94141-0.015626 1.4844 0.16406 1.4336 1.2695-0.0625 1.4023-0.21094 1.668-1.4648 1.6836z"/>
<text x="0.0" y="117.5" font-size="5.0" font-weight="bold" font-family="Arbeit Regular, Helvetica, Arial-Unicode, Arial, Sans-serif" fill="#000000">Created by Culai Lai</text><text x="0.0" y="122.5" font-size="5.0" font-weight="bold" font-family="Arbeit Regular, Helvetica, Arial-Unicode, Arial, Sans-serif" fill="#000000">from Noun Project</text></svg>